<svg xmlns="http://www.w3.org/2000/svg" width="1320" height="485" viewBox="0 0 1320 485">
<rect width="1320" height="485" fill="white"/>
<g font-family="sans-serif" font-size="13" fill="#18212b">
<text x="35" y="25">Cells / cuts / adjacency</text>
<text x="475" y="25">Primitive ridge candidates / ports</text>
<text x="915" y="25">Final RoofGraph / junctions (before solve)</text>
<polygon points="35.000,313.750 278.750,313.750 327.500,313.750 360.000,313.750 360.000,216.250 35.000,216.250" fill="#e0eefb" stroke="#8a94a0" stroke-width="1"/>
<polygon points="278.750,395.000 327.500,395.000 327.500,313.750 278.750,313.750" fill="#f9e5d7" stroke="#8a94a0" stroke-width="1"/>
<polyline points="327.500,313.750 278.750,313.750" fill="none" stroke="#576474" stroke-width="2.5" stroke-dasharray="6,4"/>
<polyline points="197.500,265.000 303.125,354.375" fill="none" stroke="#00918e" stroke-width="1.4"/>
<text x="197.500" y="265.000">C0</text>
<text x="303.125" y="354.375">C1</text>
<polygon points="475.000,313.750 800.000,313.750 800.000,216.250 475.000,216.250" fill="none" stroke="#afb7bf" stroke-width="1"/>
<polyline points="800.000,265.000 475.000,265.000" fill="none" stroke="#b07d89" stroke-width="2.5" stroke-dasharray="5,4"/>
<circle cx="800.000" cy="265.000" r="3" fill="#b07d89"/>
<circle cx="475.000" cy="265.000" r="3" fill="#b07d89"/>
<polygon points="718.750,395.000 767.500,395.000 767.500,313.750 718.750,313.750" fill="none" stroke="#afb7bf" stroke-width="1"/>
<polyline points="743.125,395.000 743.125,313.750" fill="none" stroke="#b07d89" stroke-width="2.5" stroke-dasharray="5,4"/>
<circle cx="743.125" cy="395.000" r="3" fill="#b07d89"/>
<circle cx="743.125" cy="313.750" r="3" fill="#b07d89"/>
<polyline points="1207.500,313.750 1240.000,313.750" fill="none" stroke="#586779" stroke-width="2.7"><title>eave: (0, 1), faces (0,)</title></polyline>
<polyline points="1207.500,313.750 1207.500,395.000" fill="none" stroke="#586779" stroke-width="2.7"><title>eave: (0, 7), faces (3,)</title></polyline>
<polyline points="1207.500,313.750 1183.125,289.375" fill="none" stroke="#1767cf" stroke-width="2.7"><title>valley: (0, 11), faces (0, 3)</title></polyline>
<polyline points="1240.000,313.750 1240.000,265.000" fill="none" stroke="#586779" stroke-width="2.7"><title>gable_end: (1, 8), faces (0,)</title></polyline>
<polyline points="1240.000,216.250 915.000,216.250" fill="none" stroke="#586779" stroke-width="2.7"><title>eave: (2, 3), faces (1,)</title></polyline>
<polyline points="1240.000,216.250 1240.000,265.000" fill="none" stroke="#586779" stroke-width="2.7"><title>gable_end: (2, 8), faces (1,)</title></polyline>
<polyline points="915.000,216.250 915.000,265.000" fill="none" stroke="#586779" stroke-width="2.7"><title>gable_end: (3, 9), faces (1,)</title></polyline>
<polyline points="915.000,313.750 1158.750,313.750" fill="none" stroke="#586779" stroke-width="2.7"><title>eave: (4, 5), faces (0,)</title></polyline>
<polyline points="915.000,313.750 915.000,265.000" fill="none" stroke="#586779" stroke-width="2.7"><title>gable_end: (4, 9), faces (0,)</title></polyline>
<polyline points="1158.750,313.750 1158.750,395.000" fill="none" stroke="#586779" stroke-width="2.7"><title>eave: (5, 6), faces (2,)</title></polyline>
<polyline points="1158.750,313.750 1183.125,289.375" fill="none" stroke="#1767cf" stroke-width="2.7"><title>valley: (5, 11), faces (0, 2)</title></polyline>
<polyline points="1158.750,395.000 1183.125,395.000" fill="none" stroke="#586779" stroke-width="2.7"><title>gable_end: (6, 10), faces (2,)</title></polyline>
<polyline points="1207.500,395.000 1183.125,395.000" fill="none" stroke="#586779" stroke-width="2.7"><title>gable_end: (7, 10), faces (3,)</title></polyline>
<polyline points="1240.000,265.000 915.000,265.000" fill="none" stroke="#d63143" stroke-width="2.7"><title>ridge: (8, 9), faces (0, 1)</title></polyline>
<polyline points="1183.125,395.000 1183.125,289.375" fill="none" stroke="#d63143" stroke-width="2.7"><title>ridge: (10, 11), faces (2, 3)</title></polyline>
<circle cx="1183.125" cy="289.375" r="4.5" fill="#18212b"/><text x="1189.125" y="283.375">J11</text>
<text x="35" y="447">Dashed gray: artificial cut; teal: cell adjacency. Dashed pink: candidates only.</text><text x="35" y="467">Final red: ridge; blue: valley; orange: hip; black: junction. XY is disposable initialization, not solved roof geometry.</text></g></svg>
