<svg xmlns="http://www.w3.org/2000/svg" width="1320" height="485" viewBox="0 0 1320 485">
<rect width="1320" height="485" fill="white"/>
<g font-family="sans-serif" font-size="13" fill="#18212b">
<text x="35" y="25">Cells / cuts / adjacency</text>
<text x="475" y="25">Primitive ridge candidates / ports</text>
<text x="915" y="25">Final RoofGraph / junctions (before solve)</text>
<polygon points="35.000,286.667 62.083,286.667 116.250,286.667 224.583,286.667 278.750,286.667 360.000,286.667 360.000,178.333 35.000,178.333" fill="#e0eefb" stroke="#8a94a0" stroke-width="1"/>
<polygon points="62.083,367.917 116.250,367.917 116.250,286.667 62.083,286.667" fill="#f9e5d7" stroke="#8a94a0" stroke-width="1"/>
<polygon points="224.583,395.000 278.750,395.000 278.750,286.667 224.583,286.667" fill="#e2f0dd" stroke="#8a94a0" stroke-width="1"/>
<polyline points="62.083,286.667 116.250,286.667" fill="none" stroke="#576474" stroke-width="2.5" stroke-dasharray="6,4"/>
<polyline points="197.500,232.500 89.167,327.292" fill="none" stroke="#00918e" stroke-width="1.4"/>
<polyline points="224.583,286.667 278.750,286.667" fill="none" stroke="#576474" stroke-width="2.5" stroke-dasharray="6,4"/>
<polyline points="197.500,232.500 251.667,340.833" fill="none" stroke="#00918e" stroke-width="1.4"/>
<text x="197.500" y="232.500">C0</text>
<text x="89.167" y="327.292">C1</text>
<text x="251.667" y="340.833">C2</text>
<polygon points="475.000,286.667 800.000,286.667 800.000,178.333 475.000,178.333" fill="none" stroke="#afb7bf" stroke-width="1"/>
<polyline points="800.000,232.500 475.000,232.500" fill="none" stroke="#b07d89" stroke-width="2.5" stroke-dasharray="5,4"/>
<circle cx="800.000" cy="232.500" r="3" fill="#b07d89"/>
<circle cx="475.000" cy="232.500" r="3" fill="#b07d89"/>
<polygon points="502.083,367.917 556.250,367.917 556.250,286.667 502.083,286.667" fill="none" stroke="#afb7bf" stroke-width="1"/>
<polyline points="529.167,367.917 529.167,286.667" fill="none" stroke="#b07d89" stroke-width="2.5" stroke-dasharray="5,4"/>
<circle cx="529.167" cy="367.917" r="3" fill="#b07d89"/>
<circle cx="529.167" cy="286.667" r="3" fill="#b07d89"/>
<polygon points="664.583,395.000 718.750,395.000 718.750,286.667 664.583,286.667" fill="none" stroke="#afb7bf" stroke-width="1"/>
<polyline points="691.667,395.000 691.667,286.667" fill="none" stroke="#b07d89" stroke-width="2.5" stroke-dasharray="5,4"/>
<circle cx="691.667" cy="395.000" r="3" fill="#b07d89"/>
<circle cx="691.667" cy="286.667" r="3" fill="#b07d89"/>
<polyline points="915.000,286.667 942.083,286.667" fill="none" stroke="#586779" stroke-width="2.7"><title>eave: (0, 1), faces (0,)</title></polyline>
<polyline points="915.000,286.667 915.000,232.500" fill="none" stroke="#586779" stroke-width="2.7"><title>gable_end: (0, 13), faces (0,)</title></polyline>
<polyline points="942.083,286.667 942.083,367.917" fill="none" stroke="#586779" stroke-width="2.7"><title>eave: (1, 2), faces (2,)</title></polyline>
<polyline points="942.083,286.667 969.167,259.583" fill="none" stroke="#1767cf" stroke-width="2.7"><title>valley: (1, 15), faces (0, 2)</title></polyline>
<polyline points="942.083,367.917 969.167,367.917" fill="none" stroke="#586779" stroke-width="2.7"><title>gable_end: (2, 14), faces (2,)</title></polyline>
<polyline points="996.250,367.917 996.250,286.667" fill="none" stroke="#586779" stroke-width="2.7"><title>eave: (3, 4), faces (3,)</title></polyline>
<polyline points="996.250,367.917 969.167,367.917" fill="none" stroke="#586779" stroke-width="2.7"><title>gable_end: (3, 14), faces (3,)</title></polyline>
<polyline points="996.250,286.667 1104.583,286.667" fill="none" stroke="#586779" stroke-width="2.7"><title>eave: (4, 5), faces (0,)</title></polyline>
<polyline points="996.250,286.667 969.167,259.583" fill="none" stroke="#1767cf" stroke-width="2.7"><title>valley: (4, 15), faces (0, 3)</title></polyline>
<polyline points="1104.583,286.667 1104.583,395.000" fill="none" stroke="#586779" stroke-width="2.7"><title>eave: (5, 6), faces (4,)</title></polyline>
<polyline points="1104.583,286.667 1131.667,259.583" fill="none" stroke="#1767cf" stroke-width="2.7"><title>valley: (5, 17), faces (0, 4)</title></polyline>
<polyline points="1104.583,395.000 1131.667,395.000" fill="none" stroke="#586779" stroke-width="2.7"><title>gable_end: (6, 16), faces (4,)</title></polyline>
<polyline points="1158.750,395.000 1158.750,286.667" fill="none" stroke="#586779" stroke-width="2.7"><title>eave: (7, 8), faces (5,)</title></polyline>
<polyline points="1158.750,395.000 1131.667,395.000" fill="none" stroke="#586779" stroke-width="2.7"><title>gable_end: (7, 16), faces (5,)</title></polyline>
<polyline points="1158.750,286.667 1240.000,286.667" fill="none" stroke="#586779" stroke-width="2.7"><title>eave: (8, 9), faces (0,)</title></polyline>
<polyline points="1158.750,286.667 1131.667,259.583" fill="none" stroke="#1767cf" stroke-width="2.7"><title>valley: (8, 17), faces (0, 5)</title></polyline>
<polyline points="1240.000,286.667 1240.000,232.500" fill="none" stroke="#586779" stroke-width="2.7"><title>gable_end: (9, 12), faces (0,)</title></polyline>
<polyline points="1240.000,178.333 915.000,178.333" fill="none" stroke="#586779" stroke-width="2.7"><title>eave: (10, 11), faces (1,)</title></polyline>
<polyline points="1240.000,178.333 1240.000,232.500" fill="none" stroke="#586779" stroke-width="2.7"><title>gable_end: (10, 12), faces (1,)</title></polyline>
<polyline points="915.000,178.333 915.000,232.500" fill="none" stroke="#586779" stroke-width="2.7"><title>gable_end: (11, 13), faces (1,)</title></polyline>
<polyline points="1240.000,232.500 915.000,232.500" fill="none" stroke="#d63143" stroke-width="2.7"><title>ridge: (12, 13), faces (0, 1)</title></polyline>
<polyline points="969.167,367.917 969.167,259.583" fill="none" stroke="#d63143" stroke-width="2.7"><title>ridge: (14, 15), faces (2, 3)</title></polyline>
<polyline points="1131.667,395.000 1131.667,259.583" fill="none" stroke="#d63143" stroke-width="2.7"><title>ridge: (16, 17), faces (4, 5)</title></polyline>
<circle cx="969.167" cy="259.583" r="4.5" fill="#18212b"/><text x="975.167" y="253.583">J15</text>
<circle cx="1131.667" cy="259.583" r="4.5" fill="#18212b"/><text x="1137.667" y="253.583">J17</text>
<text x="35" y="447">Dashed gray: artificial cut; teal: cell adjacency. Dashed pink: candidates only.</text><text x="35" y="467">Final red: ridge; blue: valley; orange: hip; black: junction. XY is disposable initialization, not solved roof geometry.</text></g></svg>
