<svg xmlns="http://www.w3.org/2000/svg" width="1320" height="485" viewBox="0 0 1320 485">
<rect width="1320" height="485" fill="white"/>
<g font-family="sans-serif" font-size="13" fill="#18212b">
<text x="35" y="25">Cells / cuts / adjacency</text>
<text x="475" y="25">Primitive ridge candidates / ports</text>
<text x="915" y="25">Final RoofGraph / junctions (before solve)</text>
<polygon points="35.000,230.211 240.986,230.211 240.986,102.042 35.000,102.042" fill="#e0eefb" stroke="#8a94a0" stroke-width="1"/>
<polygon points="240.986,395.000 360.000,395.000 360.000,102.042 240.986,102.042 240.986,230.211" fill="#f9e5d7" stroke="#8a94a0" stroke-width="1"/>
<polyline points="240.986,230.211 240.986,102.042" fill="none" stroke="#576474" stroke-width="2.5" stroke-dasharray="6,4"/>
<polyline points="137.993,166.127 300.493,248.521" fill="none" stroke="#00918e" stroke-width="1.4"/>
<text x="137.993" y="166.127">C0</text>
<text x="300.493" y="248.521">C1</text>
<polygon points="475.000,230.211 680.986,230.211 680.986,102.042 475.000,102.042" fill="none" stroke="#afb7bf" stroke-width="1"/>
<polyline points="680.986,166.127 475.000,166.127" fill="none" stroke="#b07d89" stroke-width="2.5" stroke-dasharray="5,4"/>
<circle cx="680.986" cy="166.127" r="3" fill="#b07d89"/>
<circle cx="475.000" cy="166.127" r="3" fill="#b07d89"/>
<polygon points="680.986,395.000 800.000,395.000 800.000,102.042 680.986,102.042" fill="none" stroke="#afb7bf" stroke-width="1"/>
<polyline points="740.493,395.000 740.493,102.042" fill="none" stroke="#b07d89" stroke-width="2.5" stroke-dasharray="5,4"/>
<circle cx="740.493" cy="395.000" r="3" fill="#b07d89"/>
<circle cx="740.493" cy="102.042" r="3" fill="#b07d89"/>
<polyline points="1120.986,395.000 1120.986,230.211" fill="none" stroke="#586779" stroke-width="2.7"><title>eave: (0, 5), faces (2,)</title></polyline>
<polyline points="1120.986,395.000 1180.493,395.000" fill="none" stroke="#586779" stroke-width="2.7"><title>gable_end: (0, 6), faces (2,)</title></polyline>
<polyline points="1240.000,395.000 1240.000,102.042" fill="none" stroke="#586779" stroke-width="2.7"><title>eave: (1, 2), faces (3,)</title></polyline>
<polyline points="1240.000,395.000 1180.493,395.000" fill="none" stroke="#586779" stroke-width="2.7"><title>gable_end: (1, 6), faces (3,)</title></polyline>
<polyline points="1240.000,102.042 915.000,102.042" fill="none" stroke="#586779" stroke-width="2.7"><title>eave: (2, 3), faces (1,)</title></polyline>
<polyline points="1240.000,102.042 1111.831,166.127" fill="none" stroke="#dc8818" stroke-width="2.7"><title>hip: (2, 8), faces (1, 3)</title></polyline>
<polyline points="915.000,102.042 915.000,166.127" fill="none" stroke="#586779" stroke-width="2.7"><title>gable_end: (3, 7), faces (1,)</title></polyline>
<polyline points="915.000,230.211 1120.986,230.211" fill="none" stroke="#586779" stroke-width="2.7"><title>eave: (4, 5), faces (0,)</title></polyline>
<polyline points="915.000,230.211 915.000,166.127" fill="none" stroke="#586779" stroke-width="2.7"><title>gable_end: (4, 7), faces (0,)</title></polyline>
<polyline points="1120.986,230.211 1180.493,263.779" fill="none" stroke="#1767cf" stroke-width="2.7"><title>valley: (5, 9), faces (0, 2)</title></polyline>
<polyline points="1180.493,395.000 1180.493,263.779" fill="none" stroke="#d63143" stroke-width="2.7"><title>ridge: (6, 9), faces (2, 3)</title></polyline>
<polyline points="915.000,166.127 1111.831,166.127" fill="none" stroke="#d63143" stroke-width="2.7"><title>ridge: (7, 8), faces (0, 1)</title></polyline>
<polyline points="1111.831,166.127 1180.493,263.779" fill="none" stroke="#dc8818" stroke-width="2.7"><title>hip: (8, 9), faces (0, 3)</title></polyline>
<circle cx="1111.831" cy="166.127" r="4.5" fill="#18212b"/><text x="1117.831" y="160.127">J8</text>
<circle cx="1180.493" cy="263.779" r="4.5" fill="#18212b"/><text x="1186.493" y="257.779">J9</text>
<text x="35" y="447">Dashed gray: artificial cut; teal: cell adjacency. Dashed pink: candidates only.</text><text x="35" y="467">Final red: ridge; blue: valley; orange: hip; black: junction. XY is disposable initialization, not solved roof geometry.</text></g></svg>
