<svg xmlns="http://www.w3.org/2000/svg" width="1320" height="485" viewBox="0 0 1320 485">
<rect width="1320" height="485" fill="white"/>
<g font-family="sans-serif" font-size="13" fill="#18212b">
<text x="35" y="25">Cells / cuts / adjacency</text>
<text x="475" y="25">Primitive ridge candidates / ports</text>
<text x="915" y="25">Final RoofGraph / junctions (before solve)</text>
<polygon points="35.000,242.059 143.333,242.059 143.333,159.216 35.000,159.216" fill="#e0eefb" stroke="#8a94a0" stroke-width="1"/>
<polygon points="63.676,395.000 143.333,395.000 143.333,308.971 63.676,308.971" fill="#f9e5d7" stroke="#8a94a0" stroke-width="1"/>
<polygon points="143.333,395.000 251.667,395.000 251.667,156.029 251.667,70.000 143.333,70.000 143.333,159.216 143.333,242.059 143.333,308.971" fill="#e2f0dd" stroke="#8a94a0" stroke-width="1"/>
<polygon points="251.667,156.029 302.647,156.029 302.647,70.000 251.667,70.000" fill="#eee2f6" stroke="#8a94a0" stroke-width="1"/>
<polyline points="251.667,156.029 251.667,70.000" fill="none" stroke="#576474" stroke-width="2.5" stroke-dasharray="6,4"/>
<polyline points="197.500,232.500 277.157,113.015" fill="none" stroke="#00918e" stroke-width="1.4"/>
<polyline points="143.333,159.216 143.333,242.059" fill="none" stroke="#576474" stroke-width="2.5" stroke-dasharray="6,4"/>
<polyline points="89.167,200.637 197.500,232.500" fill="none" stroke="#00918e" stroke-width="1.4"/>
<polyline points="143.333,308.971 143.333,395.000" fill="none" stroke="#576474" stroke-width="2.5" stroke-dasharray="6,4"/>
<polyline points="103.505,351.985 197.500,232.500" fill="none" stroke="#00918e" stroke-width="1.4"/>
<text x="89.167" y="200.637">C0</text>
<text x="103.505" y="351.985">C1</text>
<text x="197.500" y="232.500">C2</text>
<text x="277.157" y="113.015">C3</text>
<polygon points="475.000,242.059 583.333,242.059 583.333,159.216 475.000,159.216" fill="none" stroke="#afb7bf" stroke-width="1"/>
<polyline points="583.333,200.637 475.000,200.637" fill="none" stroke="#b07d89" stroke-width="2.5" stroke-dasharray="5,4"/>
<circle cx="583.333" cy="200.637" r="3" fill="#b07d89"/>
<circle cx="475.000" cy="200.637" r="3" fill="#b07d89"/>
<polygon points="503.676,395.000 583.333,395.000 583.333,308.971 503.676,308.971" fill="none" stroke="#afb7bf" stroke-width="1"/>
<polyline points="583.333,351.985 503.676,351.985" fill="none" stroke="#b07d89" stroke-width="2.5" stroke-dasharray="5,4"/>
<circle cx="583.333" cy="351.985" r="3" fill="#b07d89"/>
<circle cx="503.676" cy="351.985" r="3" fill="#b07d89"/>
<polygon points="583.333,395.000 691.667,395.000 691.667,70.000 583.333,70.000" fill="none" stroke="#afb7bf" stroke-width="1"/>
<polyline points="637.500,395.000 637.500,70.000" fill="none" stroke="#b07d89" stroke-width="2.5" stroke-dasharray="5,4"/>
<circle cx="637.500" cy="395.000" r="3" fill="#b07d89"/>
<circle cx="637.500" cy="70.000" r="3" fill="#b07d89"/>
<polygon points="691.667,156.029 742.647,156.029 742.647,70.000 691.667,70.000" fill="none" stroke="#afb7bf" stroke-width="1"/>
<polyline points="742.647,113.015 691.667,113.015" fill="none" stroke="#b07d89" stroke-width="2.5" stroke-dasharray="5,4"/>
<circle cx="742.647" cy="113.015" r="3" fill="#b07d89"/>
<circle cx="691.667" cy="113.015" r="3" fill="#b07d89"/>
<text x="915" y="70" fill="#b82234">UNSUPPORTED — no final graph</text>
<text x="915" y="100">no complete supported middle-attachment</text>
<text x="915" y="120">arrangement; terminal graft requires one</text>
<text x="915" y="140">attachment</text>
<text x="35" y="447">Dashed gray: artificial cut; teal: cell adjacency. Dashed pink: candidates only.</text><text x="35" y="467">Final red: ridge; blue: valley; orange: hip; black: junction. XY is disposable initialization, not solved roof geometry.</text></g></svg>
