<svg xmlns="http://www.w3.org/2000/svg" width="800" height="760" viewBox="0 0 800 760">
<rect width="800" height="760" fill="white"/>
<g font-family="sans-serif" fill="#18212b" font-size="14">
<text x="35" y="28">Minimum rectangular partition: 5 cells</text>
<polygon points="45.000,690.000 165.000,690.000 165.000,570.000 165.000,450.000 45.000,450.000" fill="#dbe9fa" stroke="#536273" stroke-width="1.5"/>
<text x="105.000" y="570.000">0</text>
<polygon points="165.000,570.000 285.000,570.000 285.000,450.000 285.000,90.000 165.000,90.000 165.000,450.000" fill="#f8ddc5" stroke="#536273" stroke-width="1.5"/>
<text x="225.000" y="330.000">1</text>
<polygon points="285.000,450.000 405.000,450.000 405.000,330.000 405.000,90.000 285.000,90.000" fill="#dfedda" stroke="#536273" stroke-width="1.5"/>
<text x="345.000" y="270.000">2</text>
<polygon points="405.000,330.000 525.000,330.000 525.000,210.000 525.000,90.000 405.000,90.000" fill="#f2dced" stroke="#536273" stroke-width="1.5"/>
<text x="465.000" y="210.000">3</text>
<polygon points="525.000,210.000 645.000,210.000 645.000,90.000 525.000,90.000" fill="#e6e2fd" stroke="#536273" stroke-width="1.5"/>
<text x="585.000" y="150.000">4</text>
<polyline points="165.000,570.000 165.000,450.000" fill="none" stroke="#185dc7" stroke-width="3"><title>selected good diagonal 1</title></polyline>
<polyline points="285.000,450.000 285.000,90.000" fill="none" stroke="#26364a" stroke-width="2" stroke-dasharray="6,4"><title>completion from reflex 2</title></polyline>
<polyline points="405.000,330.000 405.000,90.000" fill="none" stroke="#26364a" stroke-width="2" stroke-dasharray="6,4"><title>completion from reflex 4</title></polyline>
<polyline points="525.000,210.000 525.000,90.000" fill="none" stroke="#26364a" stroke-width="2" stroke-dasharray="6,4"><title>completion from reflex 6</title></polyline>
<text x="35" y="735">Blue: selected good diagonal. Dashed: reflex completion. No roof geometry.</text></g></svg>
